# xmcd
#
# Track frame offsets:
#	150
#	8974
#	19313
#	32306
#	45679
#	56488
#	68191
#	79722
#	90080
#	101118
#	115307
#	127430
#	140218
#	155191
#	167527
#	180316
#	192744
#	204695
#	215364
#	228267
#	237535
#	250118
#	267500
#	282550
#	296310
#	315959
#
# Disc length: 4438 seconds
#
# Revision: 0
# Processed by: cddbd v1.5.2PL0 Copyright (c) Steve Scherf et al.
# Submitted via: audiograbber 1.83.01
#
DISCID=7f11541a
DTITLE=Nelson Riddle - We Love Nelson Riddle!
DYEAR=1900
DGENRE=
TTITLE0=Drive-In
TTITLE1=Brother John
TTITLE2=Shadow Waltz
TTITLE3=All Er Nothin' (From "Oklahoma!")
TTITLE4=Pore Jud Is Daid (From "Oklahoma!")
TTITLE5=Lisbon Antigua
TTITLE6=The Argentine Fire Brigade
TTITLE7=Robin Hood
TTITLE8=Port Au Prince
TTITLE9=Midnight Blues
TTITLE10=Vilia
TTITLE11=Vera Cruz
TTITLE12=The Deep Blue Sea
TTITLE13=The Love Of Genevieve (Ah! Quel Bonheur)
TTITLE14=Theme From "The Proud Ones"
TTITLE15=Farmer's Tango
TTITLE16=Could You
TTITLE17=Holiday In Naples
TTITLE18=Johnny Concho-Main Title (From "Johnny Concho")
TTITLE19=The Challenge (From "Johnny Concho")
TTITLE20=Johnny Concho's Theme (Wait For Me)(From "Johnny Concho")
TTITLE21=Johnny's Victory (From "Johhny Concho")
TTITLE22=Loveletters
TTITLE23=All Or Nothing At All
TTITLE24=Body And Soul
TTITLE25=You're Mine You!
EXTD=
EXTT0=
EXTT1=
EXTT2=
EXTT3=
EXTT4=
EXTT5=
EXTT6=
EXTT7=
EXTT8=
EXTT9=
EXTT10=
EXTT11=
EXTT12=
EXTT13=
EXTT14=
EXTT15=
EXTT16=
EXTT17=
EXTT18=
EXTT19=
EXTT20=
EXTT21=
EXTT22=
EXTT23=
EXTT24=
EXTT25=
PLAYORDER=
